<svg width="24" height="24" viewBox="0 0 24 24" fill="none" xmlns="http://www.w3.org/2000/svg">
<path d="M20.432 7.5C20.432 5.70508 18.9769 4.25 17.182 4.25H6.68201C4.88708 4.25 3.43201 5.70507 3.43201 7.5V16.5C3.43201 18.2949 4.88708 19.75 6.68201 19.75H17.182C18.9769 19.75 20.432 18.2949 20.432 16.5V7.5ZM21.932 16.5C21.932 19.1234 19.8054 21.25 17.182 21.25H6.68201C4.05865 21.25 1.93201 19.1234 1.93201 16.5V7.5C1.93201 4.87665 4.05865 2.75 6.68201 2.75H17.182C19.8054 2.75 21.932 4.87665 21.932 7.5V16.5Z" fill="black"/>
<path d="M20.7622 6.93867C21.1217 6.73346 21.5792 6.85858 21.7847 7.21797C21.9902 7.57758 21.866 8.03585 21.5064 8.24141L14.2808 12.3713L14.2798 12.3703C13.5629 12.7852 12.7498 13.0051 11.9214 13.0051C11.0912 13.0051 10.2752 12.7851 9.55713 12.3684V12.3674L2.35596 8.24043C1.99674 8.03439 1.87266 7.5763 2.07862 7.21699C2.28466 6.85777 2.74275 6.73369 3.10206 6.93965L10.3071 11.0695L10.3101 11.0715C10.7995 11.3555 11.3556 11.5051 11.9214 11.5051C12.4872 11.5051 13.0433 11.3555 13.5327 11.0715L13.5366 11.0686L20.7622 6.93867Z" fill="black"/>
</svg>
