<svg width="24" height="24" viewBox="0 0 24 24" fill="none" xmlns="http://www.w3.org/2000/svg">
<g clip-path="url(#clip0_62_2219)">
<path d="M22.4504 12.0002C22.4504 9.22873 21.3487 6.57035 19.3889 4.6106C17.4292 2.65107 14.7715 1.5501 12.0002 1.55005C10.6279 1.55005 9.26907 1.82079 8.00122 2.34595C6.73337 2.87111 5.58097 3.64022 4.6106 4.6106C3.64022 5.58097 2.87111 6.73337 2.34595 8.00122C1.82079 9.26907 1.55005 10.6279 1.55005 12.0002C1.55007 13.3725 1.82081 14.7315 2.34595 15.9993C2.87105 17.2669 3.64044 18.4187 4.6106 19.3889C5.58097 20.3593 6.73337 21.1294 8.00122 21.6545C9.26903 22.1797 10.628 22.4504 12.0002 22.4504C14.7717 22.4504 17.4292 21.3486 19.3889 19.3889C21.3486 17.4292 22.4504 14.7717 22.4504 12.0002ZM17.0139 7.53149C17.2727 7.20806 17.7452 7.15557 18.0686 7.41431C18.392 7.67306 18.4445 8.14555 18.1858 8.46899L11.3079 17.0657L5.92017 12.5764C5.602 12.3113 5.55842 11.838 5.82349 11.5198C6.08866 11.2016 6.56192 11.1589 6.88013 11.4241L11.092 14.9338L17.0139 7.53149ZM23.9504 12.0002C23.9504 15.1695 22.6915 18.2094 20.4504 20.4504C18.2094 22.6915 15.1695 23.9504 12.0002 23.9504C10.4309 23.9504 8.87684 23.6408 7.427 23.0403C5.97726 22.4398 4.65966 21.56 3.55005 20.4504C2.44043 19.3408 1.55977 18.0233 0.959229 16.5735C0.35871 15.1237 0.0500745 13.5695 0.0500488 12.0002C0.0500488 10.431 0.358734 8.87679 0.959229 7.427C1.55977 5.97716 2.44039 4.65971 3.55005 3.55005C4.65971 2.44039 5.97716 1.55977 7.427 0.959229C8.87679 0.358734 10.431 0.0500488 12.0002 0.0500488C15.1695 0.0501006 18.2094 1.30904 20.4504 3.55005C22.6914 5.79109 23.9504 8.831 23.9504 12.0002Z" fill="black"/>
</g>
<defs>
<clipPath id="clip0_62_2219">
<rect width="24" height="24" fill="white"/>
</clipPath>
</defs>
</svg>
